# xmcd CD database file
#
# Track frame offsets:
#        150
#        23658
#        40941
#        59487
#        78114
#        97466
#        119748
#        138622
#        155846
#        175206
#        190495
#        209826
#        228764
#
# Disc length: 3340 seconds
#
# Revision: 0
# Processed by: cddbd v1.5.2PL0 Copyright (c) Steve Scherf et al.
# Submitted via: CUERipper 2.1.5
#
DISCID=c30d0a0d
DTITLE=Freestyle - Âx kakaja zhenwina
DYEAR=1995
DGENRE=Pop
TTITLE0=Âx kakaja zhenwina
TTITLE1=Tri sosny
TTITLE2=Buket bumazhnyx roz
TTITLE3=Celuj menja gorjachej
TTITLE4=Do svad'by zazhivoet
TTITLE5=Pjat' tjulpanov
TTITLE6=Ewoe vchera
TTITLE7=Ne govori mne prowaj
TTITLE8=Nasha pervaja ljubov'
TTITLE9=Marina
TTITLE10=Zachem
TTITLE11=Pervyj sneg
TTITLE12=Belaja beroeza
EXTD=
EXTT0=
EXTT1=
EXTT2=
EXTT3=
EXTT4=
EXTT5=
EXTT6=
EXTT7=
EXTT8=
EXTT9=
EXTT10=
EXTT11=
EXTT12=
PLAYORDER=
